<svg xmlns="http://www.w3.org/2000/svg" viewBox="0 0 1600 1100" width="1600" height="1100">
    <g transform="translate(906.0 117.0) rotate(0.0 148.5 140.5) scale(1.9599303135888502 1.9563340666685232)"><svg
            width="151.536" height="143.636" viewBox="0 0 151.536 143.636">
            <ellipse cx="75.768" cy="71.818" fill="#fff" rx="75.268" ry="71.318" />
            <path
                d="M75.768 143.636C33.989 143.636 0 111.419 0 71.818S33.989 0 75.768 0s75.769 32.218 75.769 71.818-33.99 71.818-75.769 71.818zM75.768 1C34.541 1 1 32.768 1 71.818c0 39.049 33.541 70.817 74.768 70.817 41.228 0 74.769-31.769 74.769-70.817C150.536 32.768 116.995 1 75.768 1z"
                fill="#1d2445" />
            <ellipse cx="75.768" cy="71.818" fill="#fff" rx="60.214" ry="57.054" />
            <path
                d="M75.768 129.372c-33.478 0-60.714-25.818-60.714-57.554S42.29 14.263 75.768 14.263c33.479 0 60.715 25.819 60.715 57.555s-27.237 57.554-60.715 57.554zm0-114.109c-32.927 0-59.714 25.37-59.714 56.555 0 31.184 26.787 56.554 59.714 56.554s59.715-25.37 59.715-56.554c-.001-31.184-26.789-56.555-59.715-56.555z"
                fill="#1d2445" />
            <ellipse cx="75.768" cy="71.818" fill="#fff" rx="45.161" ry="42.791" />
            <path
                d="M75.768 115.109c-25.177 0-45.66-19.42-45.66-43.291s20.483-43.291 45.66-43.291c25.178 0 45.661 19.42 45.661 43.291s-20.484 43.291-45.661 43.291zm0-85.582c-24.626 0-44.66 18.972-44.66 42.291s20.034 42.291 44.66 42.291 44.661-18.972 44.661-42.291-20.036-42.291-44.661-42.291z"
                fill="#1d2445" />
            <circle cx="75.87" cy="72.107" fill="#fff" r="24.908" />
            <path
                d="M75.87 97.515c-14.01 0-25.408-11.398-25.408-25.408S61.86 46.7 75.87 46.7s25.407 11.397 25.407 25.407S89.88 97.515 75.87 97.515zm0-49.815c-13.459 0-24.408 10.949-24.408 24.407 0 13.459 10.949 24.408 24.408 24.408 13.458 0 24.407-10.949 24.407-24.408 0-13.458-10.949-24.407-24.407-24.407z"
                fill="#1d2445" />
        </svg></g>
    <g transform="translate(571.0 390.0) rotate(0.0 102.5 136.5) scale(1.6626115166261153 1.6656497864551556)"><svg
            width="123.3" height="163.9" viewBox="0 0 123.3 163.9">
            <path
                d="m99.9 72.8-12.5-8V12.7c0-7.2-5.5-7.6-5.5-7.6-.4-2.7-2-4.6-3.9-4.6H60.4c-2.2 0-4 2.7-4 6v48.7c0 3-8 12.1-8 12.1V29.6c0-.6-.5-1.1-1.1-1.1h-2.9c-.6 0-1.1-.5-1.1-1.1v-7.9c0-.6-.5-1.1-1.1-1.1H38c-2.1 0-3.7 2.8-3.7 6.3v11.6c0 1.2-1 2.1-2.1 2.1h-2.7c-1.2 0-2.1 1-2.1 2.1v32.7l-8.5 14-13.7 7.3c-2.1 0-3.8 2.8-3.8 6.2s-.9 62.7-.9 62.7l121.9-2 .4-58z"
                fill="#fff" />
            <path
                d="M.5 163.9a.499.499 0 0 1-.5-.507c.009-.593.9-59.335.9-62.692 0-3.626 1.858-6.589 4.169-6.697l13.475-7.18L26.9 73.06V40.5c0-1.434 1.166-2.6 2.6-2.6h2.7c.772 0 1.6-.643 1.6-1.6V24.7c0-3.877 1.806-6.8 4.2-6.8h4.2c.882 0 1.6.718 1.6 1.6v7.9c0 .325.275.6.601.6H47.3c.883 0 1.601.718 1.601 1.601v36.353c2.542-3.01 7-8.711 7-10.753V6.5c0-3.584 2.019-6.5 4.5-6.5H78c2.06 0 3.806 1.899 4.333 4.663 1.334.267 5.567 1.62 5.567 8.037v51.827l12.27 7.853a.487.487 0 0 1 .131.121l22.899 30.6a.504.504 0 0 1 .1.304l-.399 58a.501.501 0 0 1-.492.496l-121.9 2L.5 163.9zm29-125c-.957 0-1.6.827-1.6 1.6v32.7a.504.504 0 0 1-.072.26l-8.5 14a.508.508 0 0 1-.192.182l-13.7 7.3A.524.524 0 0 1 5.2 95c-1.789 0-3.3 2.61-3.3 5.7 0 3.196-.804 56.346-.893 62.191l120.896-1.983.396-57.343-22.744-30.393-12.424-7.951a.498.498 0 0 1-.23-.421V12.7c0-6.658-4.831-7.086-5.036-7.101a.501.501 0 0 1-.458-.426C81.041 2.716 79.641 1 78 1H60.4c-1.897 0-3.5 2.519-3.5 5.5v48.7c0 3.099-7.293 11.484-8.124 12.431a.5.5 0 0 1-.876-.33V29.6c0-.325-.275-.6-.6-.6h-2.9a1.602 1.602 0 0 1-1.601-1.6v-7.9c0-.325-.274-.6-.6-.6H38c-1.765 0-3.2 2.602-3.2 5.8v11.6c0 1.434-1.166 2.6-2.6 2.6z"
                fill="#1d2445" />
        </svg></g>
    <g transform="translate(310.0 341.0) rotate(0.0 95.0 155.0) scale(1.5650741350906094 1.563012075528777)"><svg
            width="121.4" height="198.335" viewBox="0 0 121.4 198.335">
            <path
                d="m117.9 104.7-14-24.1V61.3c0-1.1-.2-2.2-.7-3.2l-2.6-5.6c-.5-1-.7-2.1-.7-3.1V28.6c0-.6-.5-1.1-1.1-1.1h-4.9c-.6 0-1.1.5-1.1 1.1v39.9c0 .6-.5 1.1-1 1.1l-4.9 8.6c-.6 0-1-.5-1-1.1V18c0-.8-.4-1.5-1.1-1.9l-7.3-4c-.4-.2-.7-.6-.9-1-.1-.2-6.4-9.4-6.6-9.7-.4-.6-1-.9-1.7-.9h-6.7c-.3 0-.6.1-.8.4-.1.1-8.9 8.1-9 8.2-.2.3-.5.4-.8.4h-6c-.5 0-1 .4-1 1L40.6 62c0 .4-.3.7-.6.9l-5.4 2.6c-.3.1-.5.4-.6.7l-6.6 22.6c-.1.5-.5.8-1 .8h-6.3c-2 0-3.8.8-5.2 2.3-3.2 3.5-9.3 10.1-12.4 13.6-1.3 1.5-2 3.4-2 5.3 0 14.8.1 79.1.1 86.9 0 .6 119.3-1 119.3-1 .6 0 1-.5 1-1.1l-1-83.5c0-2.7-.7-5.2-2-7.4z"
                fill="#fff" />
            <path
                d="M8.593 198.334h-.002c-8.491 0-8.491 0-8.491-.635 0-3.28-.018-16.557-.038-31.94A66157.09 66157.09 0 0 1 0 110.8a8.61 8.61 0 0 1 2.122-5.628c2.304-2.602 6.264-6.914 9.445-10.378l2.964-3.231C16.035 89.951 17.96 89.1 20.1 89.1h6.3c.273 0 .459-.146.51-.398l6.61-22.643c.174-.524.507-.896.92-1.033l5.343-2.576c.08-.06.316-.248.316-.45L43.5 10.467C43.5 9.672 44.173 9 45 9h6c.235 0 .329-.095.384-.177.112-.126 1.238-1.151 4.596-4.208C58.056 2.726 60.127.842 60.421.57 60.69.202 61.106 0 61.6 0h6.7c.881 0 1.633.398 2.116 1.123.052.078.521.766 1.188 1.741 4.553 6.662 5.383 7.893 5.442 8.014.188.376.43.651.677.775l7.316 4.009A2.66 2.66 0 0 1 86.399 18v59.1c0 .206.079.422.249.53l4.716-8.277a.504.504 0 0 1 .436-.253c.225 0 .5-.277.5-.601V28.6c0-.883.718-1.6 1.6-1.6h4.9c.883 0 1.601.718 1.601 1.601v20.8c0 .723.112 1.808.646 2.876l2.606 5.613c.494.986.747 2.139.747 3.411v19.165l13.933 23.983c1.371 2.321 2.067 4.896 2.067 7.651l1 83.494c0 .918-.645 1.605-1.5 1.605-.839.012-84.881 1.135-111.307 1.135zM1.1 197.259c.697.036 2.582.075 7.491.075 26.414 0 110.457-1.123 111.303-1.135.351 0 .507-.311.507-.6l-1-83.494c0-2.579-.649-4.983-1.931-7.152L103.468 80.85a.502.502 0 0 1-.067-.251V61.3c0-1.116-.218-2.117-.647-2.977l-2.606-5.613c-.617-1.23-.748-2.48-.748-3.31V28.6c0-.325-.275-.6-.6-.6h-4.9c-.325 0-.6.275-.6.6v39.9c0 .739-.526 1.399-1.188 1.563l-4.777 8.385a.502.502 0 0 1-.435.252c-.855 0-1.5-.688-1.5-1.6V18c0-.624-.31-1.157-.849-1.465l-7.292-3.996c-.547-.272-.905-.812-1.107-1.215-.16-.267-3.681-5.419-5.373-7.896-.67-.98-1.143-1.672-1.195-1.751-.3-.449-.732-.677-1.284-.677h-6.7c-.235 0-.329.095-.384.178-.112.126-1.229 1.144-4.563 4.178a4108.522 4108.522 0 0 0-4.475 4.075c-.269.367-.685.569-1.178.569h-6c-.24 0-.5.191-.5.5l-3.401 51.533c.001.316-.142.829-.821 1.283l-5.461 2.634c-.163.06-.277.214-.342.407L27.88 88.941c-.134.677-.733 1.159-1.48 1.159h-6.3c-1.855 0-3.527.74-4.834 2.141l-2.962 3.229c-3.179 3.462-7.135 7.77-9.43 10.36A7.61 7.61 0 0 0 1 110.8c0 8.575.033 33.766.062 54.957.019 14.771.037 27.599.038 31.502z"
                fill="#1d2445" />
        </svg></g>
    <g transform="translate(-2.0 504.0) rotate(0.0 801.0 298.5) scale(2.0 2.0026836632002682)"><svg width="801"
            height="298.1" viewBox="0 0 801 298.1">
            <g>
                <path
                    d="M710.9 61.6c-2.4 0-4 0-5.6-1.4-6.4-6.9-22.5-13.7-49.8-16.2-3.5-.3-6.6-.5-9.2-.5-10.4 0-13.7 1.7-14.9 2.9-1.6 1.5-4 2.4-7.2 2.4l-20.1 1.5c-4.8.5-9.1 3.3-9.1 6.2 0 1.7 0 3-2 3-4 0-8.3-1.7-17-8.7-14.5-11.1-22.5-14.3-30-14.3-5.7.1-11.3 2.2-18.3 3.5-5.6 1.2-9 1.6-11.7 1.5-5.1-.1-6.7-1.5-6.7-1.5s-8-8.8-17.7-9.8c-9.6-1-33.8-15.7-70.7-24-10.7-2.5-20.5-3.7-28.8-3.7-21 0-33.8 5.2-33.8 5.2l-26.5 9.8c-2.4 1-3.6 1-6.6 1-3.4 0-9-3-17.5-3h-57.1S165.2.5 150.1.5c-5.4 0-82 18-82 18H.5v278.653h800V61.5h-89.6z"
                    fill="#fff" />
                <path
                    d="M800.5 297.653H.5a.5.5 0 0 1-.5-.5V18.5a.5.5 0 0 1 .5-.5h67.542c3.862-.907 76.691-18 82.058-18 14.971 0 99.732 14.857 100.586 15.008L253 15h54.7c5.274 0 9.363 1.117 12.648 2.016 2.013.549 3.602.984 4.852.984 2.983 0 4.1 0 6.407-.962l26.519-9.807C358.241 7.184 371.244 2 392.1 2c8.519 0 18.517 1.284 28.915 3.713 22.388 5.036 39.924 12.347 52.728 17.685 8.242 3.437 14.197 5.919 17.909 6.306 9.775 1.008 17.683 9.592 18.019 9.96h-.001c.01 0 1.609 1.244 6.341 1.337.267.01.529.015.801.015 2.605 0 5.932-.464 10.785-1.504 2.524-.469 4.844-1.036 7.086-1.584 3.913-.957 7.61-1.861 11.31-1.927 8.276 0 16.773 4.038 30.313 14.403C585.203 57.563 589.289 59 593 59c1.428 0 1.5-.643 1.5-2.5 0-3.091 4.372-6.158 9.548-6.697l20.115-1.502c2.943-.001 5.314-.784 6.896-2.266 2.008-2.01 7.14-3.035 15.241-3.035 2.342 0 5.192.155 9.243.502 24.275 2.223 42.544 8.186 50.123 16.358 1.361 1.188 2.734 1.238 4.934 1.24a.499.499 0 0 1 .3-.1h89.6a.5.5 0 0 1 .5.5v235.653a.5.5 0 0 1-.5.5zm-799.5-1h799V62h-88.799a.5.5 0 0 1-.301.101c-2.432 0-4.188 0-5.93-1.524-3.545-3.818-15.389-12.953-49.517-16.078-4.016-.346-6.841-.499-9.153-.499-9.748 0-13.29 1.497-14.546 2.754-1.781 1.67-4.389 2.546-7.554 2.546l-20.063 1.499c-4.594.479-8.637 3.144-8.637 5.701 0 1.641 0 3.5-2.5 3.5-3.928 0-8.194-1.474-17.313-8.811C560.304 39.414 552.692 37 546 37c-3.579.063-7.223.954-11.081 1.897-2.256.552-4.588 1.123-7.128 1.594-5.432 1.165-8.996 1.613-11.81 1.509-5.213-.103-6.94-1.562-7.011-1.624-.119-.126-8.03-8.71-17.423-9.679-3.858-.401-9.87-2.908-18.19-6.377-12.771-5.323-30.26-12.615-52.566-17.633C410.463 4.275 400.543 3 392.1 3c-20.646 0-33.485 5.111-33.612 5.163l-26.515 9.806C329.5 19 328.241 19 325.2 19c-1.385 0-3.031-.45-5.115-1.02-3.228-.882-7.245-1.98-12.385-1.98h-57.1c-.94-.157-85.616-15-100.5-15-5.281 0-81.12 17.807-81.886 17.986A.434.434 0 0 1 68.1 19H1z"
                    fill="#1d2445" />
            </g>
            <g>
                <path
                    d="M800.5 73.501v31l-88.6-2.9c-17.4 0-39.6-2.8-64-3-14.8-.1-30.2 1.3-46.3 3.7-57.8 8.9-107.5-1.7-172.1-1.7s-125.2-26.9-191.6-26.9-170 10.7-170 10.7l-67.4 5.1v-40l66.4-2.3s15.8-8.6 29-8.6 21.5 6 28 6 18-1.9 33-3.8c24-3.1 58.6-7.2 77-7.2 19.6 0 77.9 12.7 97.2 23.5 8.7 4.6 21 5.5 35.8 5.5 11.9 0 25.4-1 40-1 17.2 0 33.7-.2 44.5-3.9 2.3-.7 6.3-1.1 11.5-1.1 13.5-.1 33.6 1.3 51 4.1 14.4 2.4 78 20.9 78 20.9 24.7 0 42.9-4 70-4 24.7 0 26.2-8 50-8z"
                    fill="#fff" />
                <path
                    d="M551.859 106.359c-18.617 0-36.909-1.201-56.275-2.473-20.864-1.37-42.438-2.786-66.084-2.786-32.131 0-63.878-6.772-94.58-13.322C303.63 81.102 271.275 74.2 237.9 74.2c-65.615 0-168.913 10.591-169.949 10.697L.538 90a.49.49 0 0 1-.377-.133.495.495 0 0 1-.161-.366v-40a.5.5 0 0 1 .483-.5l66.284-2.297C68.178 45.955 83.29 38.1 95.9 38.1c7.84 0 14.02 2.111 18.985 3.808 3.444 1.177 6.418 2.192 9.015 2.192 4.647 0 11.95-.989 21.195-2.242 3.618-.49 7.543-1.021 11.742-1.554 37.001-4.78 62.93-7.204 77.063-7.204 19.236 0 77.642 12.482 97.444 23.563C340.38 61.44 353.773 62.1 366.9 62.1c5.637 0 11.616-.224 17.946-.461 7.065-.266 14.372-.539 22.054-.539 18.074 0 33.885-.292 44.338-3.873 2.395-.729 6.53-1.127 11.662-1.127.446-.003.904-.005 1.367-.005 14.673 0 34.187 1.613 49.712 4.11 14.057 2.344 75.576 20.192 77.992 20.895 12.01-.004 22.312-.938 33.217-1.929 11.221-1.019 22.825-2.071 36.712-2.071 12.388 0 18.986-2.051 25.367-4.033 6.276-1.95 12.767-3.967 24.633-3.967l88.622 3.901a.5.5 0 0 1 .478.499v31c0 .136-.055.265-.152.359s-.2.15-.364.141l-88.6-2.9c-8.248 0-17.705-.638-27.718-1.313-10.991-.741-23.45-1.581-36.27-1.687l-1.481-.005c-13.408 0-28.043 1.21-44.742 3.699-15.571 2.399-31.866 3.565-49.814 3.565zM237.9 73.2c33.481 0 65.888 6.914 97.229 13.6 30.651 6.539 62.346 13.3 94.371 13.3 23.678 0 45.27 1.418 66.149 2.788 19.35 1.271 37.625 2.471 56.21 2.471 17.896 0 34.141-1.162 49.664-3.553 16.75-2.497 31.434-3.711 44.892-3.711.496 0 .993.002 1.488.005 12.851.105 25.324.947 36.33 1.689 9.995.674 19.437 1.311 27.667 1.311l88.1 2.884V73.979l-88.122-3.88c-11.691.001-17.822 1.906-24.313 3.923-6.453 2.005-13.125 4.078-25.665 4.078-13.842 0-25.423 1.051-36.622 2.067-10.949.995-21.292 1.933-33.378 1.933a.51.51 0 0 1-.14-.02c-.636-.186-63.736-18.52-77.942-20.888-15.476-2.489-34.926-4.098-49.551-4.098-.461 0-.916.002-1.363.005-5.039 0-9.072.383-11.358 1.078-10.582 3.626-26.48 3.922-44.646 3.922-7.664 0-14.96.273-22.017.538-6.34.237-12.329.462-17.984.462-15.319 0-27.309-.945-36.034-5.558C311.161 46.515 253.045 34.1 233.9 34.1c-14.091 0-39.976 2.421-76.936 7.196-4.197.531-8.12 1.063-11.735 1.553-9.282 1.258-16.614 2.251-21.329 2.251-2.763 0-5.81-1.041-9.338-2.246-4.895-1.672-10.988-3.754-18.662-3.754-12.923 0-28.604 8.453-28.761 8.539a.505.505 0 0 1-.222.061L1 49.984v38.978l66.862-5.061C68.885 83.796 172.234 73.2 237.9 73.2z"
                    fill="#1d2445" />
            </g>
            <path
                d="m711.9 101.6 88.6 2.9v193.1H.5V89.5l67.4-5.1s103.6-10.7 170-10.7 127 26.9 191.6 26.9 114.3 10.6 172.1 1.7c16.1-2.4 31.5-3.8 46.3-3.7 24.4.2 46.6 3 64 3z"
                fill="#fff" />
            <path
                d="M801 298.1H0V89.036l67.862-5.135C68.885 83.796 172.234 73.2 237.9 73.2c33.481 0 65.888 6.914 97.229 13.6 30.651 6.539 62.346 13.3 94.371 13.3 23.677 0 45.269 1.417 66.149 2.788 19.349 1.271 37.625 2.47 56.206 2.47 17.896 0 34.143-1.162 49.668-3.553 17.378-2.59 32.48-3.776 46.38-3.705 12.853.104 25.329.946 36.336 1.689 9.993.674 19.433 1.311 27.661 1.311l89.1 2.915zm-800-1h799V104.983l-88.116-2.883c-8.246 0-17.701-.638-27.712-1.313-10.993-.741-23.453-1.582-36.275-1.687-.498-.003-.995-.005-1.494-.005-13.396 0-28.027 1.21-44.729 3.698-15.573 2.398-31.869 3.564-49.817 3.564-18.614 0-36.906-1.201-56.271-2.472-20.864-1.37-42.439-2.786-66.084-2.786-32.131 0-63.878-6.772-94.58-13.322C303.63 81.102 271.275 74.2 237.9 74.2c-65.615 0-168.913 10.591-169.949 10.697L1 89.964z"
                fill="#1d2445" />
        </svg></g>
    <g transform="translate(132.0 400.0) rotate(0.0 46.0 93.0) scale(2.0087336244541487 1.9957081545064377)"><svg
            width="45.8" height="93.2" viewBox="0 0 45.8 93.2">
            <path
                d="M18.3 61v31.7c3.2-.4 6.5-.8 10-1.3V73.7c3.2-.4 7.4-1.6 10.7-4.7 6.4-5.9 6.3-20.1 6.3-21.7 0-2.3-1.5-4-3.8-4h-.2c-2.3 0-4 1.9-4 4.2 0 4.9-1.2 12.8-3.9 15.3-1.5 1.3-3.4 2-5.1 2.4V5.6c0-2.8-2.2-5.1-5-5.1s-5 2.3-5 5.1v46.6c-1.8-.7-3.8-1.9-5.2-4.2-3.1-4.7-4.2-13.5-4.2-20.5 0-2.3-1.9-4.2-4.2-4.2-2.3 0-4.2 1.9-4.2 4.2 0 2.1.2 16.8 5.6 25.1 3.5 5.5 8.6 7.6 12.2 8.4z"
                fill="#fff" />
            <path
                d="M18.3 93.2a.501.501 0 0 1-.5-.5V61.397c-3.7-.893-8.668-3.102-12.122-8.528C.159 44.387 0 29.203 0 27.5c0-2.591 2.109-4.7 4.7-4.7 2.592 0 4.7 2.108 4.7 4.699 0 6.76 1.082 15.622 4.117 20.225 1.002 1.645 2.404 2.863 4.283 3.722V5.6c0-3.088 2.468-5.6 5.5-5.6 3.033 0 5.5 2.513 5.5 5.601v58.956c1.76-.483 3.194-1.2 4.272-2.134C35.64 60.046 36.8 52.262 36.8 47.5c0-2.635 1.977-4.699 4.5-4.699h.2c2.531 0 4.3 1.851 4.3 4.5.004 4.891-.618 16.681-6.461 22.066-3.345 3.143-7.498 4.334-10.539 4.771V91.4a.5.5 0 0 1-.43.495c-3.04.435-5.934.794-8.731 1.142l-1.277.159a.43.43 0 0 1-.062.004zM4.7 23.8c-2.041 0-3.7 1.66-3.7 3.7 0 1.673.155 16.584 5.519 24.828 3.396 5.336 8.34 7.396 11.89 8.184.228.05.391.253.391.488v31.134l.716-.089c2.661-.331 5.408-.673 8.284-1.078V73.7a.5.5 0 0 1 .438-.496c2.923-.365 7.104-1.454 10.419-4.568 5.711-5.265 6.146-17.605 6.143-21.262 0-2.167-1.326-3.573-3.3-3.573h-.2c-1.963 0-3.5 1.625-3.5 3.699 0 4.604-1.103 12.929-4.061 15.668-1.336 1.158-3.124 2.002-5.325 2.519a.499.499 0 0 1-.614-.487V5.6c0-2.537-2.018-4.6-4.5-4.6s-4.5 2.063-4.5 4.6v46.6a.5.5 0 0 1-.682.466c-2.437-.948-4.218-2.39-5.445-4.406C8.708 42.251 8.4 30.85 8.4 27.5c0-2.04-1.66-3.7-3.7-3.7z"
                fill="#1d2445" />
        </svg></g>
    <g transform="translate(171.0 694.0) rotate(0.0 604.5 104.5) scale(2.1784097788796957 2.1802628833715834)"><svg
            width="554.992" height="95.86" viewBox="0 0 554.992 95.86">
            <path
                d="m258.683 51.26-1.7.2h-.5l-4-.5c-.5-.1-1-.3-1.3-.7l-.2-.2c-.7-.9-.6-2.2.3-2.9l1.7-1.2c.3-.2.7-.4 1.1-.4l2.1-.1c.4 0 .8.1 1.1.3l2.2 1.3c.5.3.9.9 1 1.5l.1.5c0 1.1-.8 2.1-1.9 2.2z"
                fill="#fff" />
            <path
                d="M256.983 51.96h-.5l-4.062-.504c-.767-.152-1.306-.452-1.638-.896l-.153-.146c-.462-.587-.658-1.254-.594-1.926.065-.69.4-1.302.941-1.722l1.718-1.214c.492-.329.956-.492 1.389-.492l2.076-.099h.003c.54 0 1.027.136 1.398.383l2.177 1.285c.629.377 1.114 1.103 1.239 1.849l.097.483c.01 1.492-1.024 2.677-2.345 2.797l-1.687.198a.39.39 0 0 1-.059.004zm-.799-6-2.076.099c-.249.001-.541.113-.846.317l-1.689 1.192a1.455 1.455 0 0 0-.541 1.014c-.04.417.083.832.347 1.17l.159.154c.228.295.563.467 1.045.563l3.963.494.406-.004 1.673-.196c.824-.075 1.458-.823 1.458-1.704l-.09-.401c-.079-.472-.393-.945-.767-1.17l-2.197-1.298a1.544 1.544 0 0 0-.845-.23z"
                fill="#1d2445" />
            <path
                d="m552.683 31.26-1.7.2h-.5l-4-.5c-.5-.1-1-.3-1.3-.7l-.2-.2c-.8-.9-.6-2.2.3-2.9l1.6-1.2c.3-.2.7-.4 1.1-.4l2-.1c.4 0 .8.1 1.2.3l2.2 1.3c.6.3.9.9 1 1.5l.1.5c.1 1.1-.7 2.1-1.8 2.2z"
                fill="#fff" />
            <path
                d="M550.984 31.96h-.5l-4.063-.504c-.766-.152-1.305-.452-1.638-.896l-.154-.148c-.479-.537-.699-1.194-.637-1.871a2.556 2.556 0 0 1 .984-1.775l1.606-1.206c.504-.337.967-.5 1.399-.5l1.976-.099h.004c.501 0 .979.118 1.444.352l2.23 1.316c.645.321 1.096.983 1.239 1.849l.097.484c.068.718-.13 1.369-.552 1.889a2.454 2.454 0 0 1-1.693.907l-1.686.198a.336.336 0 0 1-.056.004zm-1.001-6-1.976.099c-.249.001-.541.113-.847.317l-1.577 1.185a1.55 1.55 0 0 0-.596 1.072c-.036.397.095.786.369 1.095l.181.18c.227.294.563.466 1.045.563l3.964.494.405-.004 1.673-.196a1.47 1.47 0 0 0 1.021-.544c.256-.315.377-.711.34-1.114l-.092-.448c-.055-.329-.219-.894-.733-1.15l-2.23-1.316a2.126 2.126 0 0 0-.947-.233z"
                fill="#1d2445" />
            <path
                d="M51.283 34.46h.5l3.8-.5c.5-.1.9-.3 1.2-.7l.2-.2c.7-.9.6-2.3-.3-3l-1.7-1.4c-.2-.2-.4-.3-.7-.4l-2.8-.7c-.5-.1-.9-.1-1.4.2l-2.5 1.5c-.4.3-.8.7-.9 1.2l-.3.8c-.3 1.2 4.9 3.2 4.9 3.2z"
                fill="#fff" />
            <path
                d="M51.784 34.96h-.5a.526.526 0 0 1-.18-.033c-2.096-.807-5.56-2.37-5.206-3.788l.317-.854c.086-.465.443-.956 1.068-1.425l2.542-1.528c.562-.336 1.096-.392 1.755-.262l2.824.705c.374.123.655.255.933.532l1.664 1.367c.53.412.864 1.042.93 1.766a2.76 2.76 0 0 1-.554 1.928l-.24.246c-.309.419-.786.702-1.456.837l-3.833.506a.67.67 0 0 1-.064.003zm-.407-1h.374l3.767-.496c.393-.08.662-.232.866-.504l.246-.254c.22-.288.346-.733.306-1.176-.041-.445-.239-.827-.559-1.076l-1.711-1.408c-.163-.159-.285-.227-.54-.312l-2.764-.689c-.327-.063-.665-.069-1.021.144l-2.5 1.5c-.371.281-.61.584-.667.87l-.322.877c.081.396 2.218 1.626 4.525 2.524z"
                fill="#1d2445" />
            <path
                d="M115.283 7.46h.5l3.8-.5c.5-.1.9-.3 1.3-.7l.2-.2c.7-.9.6-2.3-.3-3 0 0-2.2-1.7-2.4-1.8l-2.8-.7c-.5-.1-.9-.1-1.4.2l-2.5 1.5c-.4.3-.8.7-.9 1.2l-.3.8c-.4 1.2 4.8 3.2 4.8 3.2z"
                fill="#fff" />
            <path
                d="M115.784 7.96h-.5a.526.526 0 0 1-.18-.033c-2.108-.812-5.574-2.387-5.095-3.825l.306-.817c.086-.464.442-.955 1.068-1.425l2.542-1.528c.562-.337 1.096-.392 1.755-.262l2.823.705a.483.483 0 0 1 .102.038c.202.1 1.462 1.063 2.483 1.852.542.422.876 1.052.942 1.775a2.76 2.76 0 0 1-.554 1.928l-.241.246a2.887 2.887 0 0 1-1.555.837l-3.833.506a.634.634 0 0 1-.063.003zm-.407-1h.374l3.767-.496c.395-.08.698-.243 1.011-.558l.201-.2c.22-.288.346-.733.306-1.176-.041-.445-.239-.827-.559-1.076-.955-.738-2.027-1.552-2.29-1.729l-2.725-.681c-.327-.064-.665-.07-1.021.144l-2.5 1.5c-.371.281-.61.584-.667.869l-.322.878c.063.428 2.156 1.642 4.425 2.525z"
                fill="#1d2445" />
            <path
                d="M331.583 29.46h-.5l-3.8-.5c-.5-.1-.9-.3-1.3-.7l-.2-.2c-.7-.9-.6-2.3.3-3l1.7-1.4c.2-.2.4-.3.7-.4l2.8-.7c.5-.1.9-.1 1.4.2l2.5 1.5c.4.3.8.7.9 1.2l.3.8c.4 1.2-4.8 3.2-4.8 3.2z"
                fill="#fff" />
            <path
                d="M331.583 29.96h-.5l-3.865-.504c-.656-.131-1.136-.39-1.588-.843l-.2-.2a2.778 2.778 0 0 1-.595-1.974c.065-.724.399-1.354.941-1.774l1.689-1.391c.242-.246.523-.378.86-.489l2.836-.711c.729-.146 1.216-.079 1.777.257l2.5 1.5c.669.497 1.025.989 1.134 1.531l.277.722c.486 1.456-2.979 3.031-5.088 3.843a.502.502 0 0 1-.178.033zm.218-6.96a2.21 2.21 0 0 0-.42.05l-2.776.695c-.218.073-.341.142-.468.269l-1.736 1.432c-.331.258-.529.64-.569 1.085-.04.441.086.888.347 1.222l.159.154c.313.314.616.478 1.045.563l3.767.494.339-.003c2.27-.884 4.364-2.099 4.418-2.567l-.29-.758c-.079-.363-.318-.666-.732-.976l-2.457-1.472a1.17 1.17 0 0 0-.627-.188z"
                fill="#1d2445" />
            <path
                d="m11.683 54.76-4.9.7h-.4l-4.3-.7c-.5-.1-1-.4-1.3-.9-.5-.8-.3-1.9.3-2.5l.9-.9c.3-.3.6-.5 1-.5l3.1-.4c.3 0 .5 0 .8.1l3.6 1.2c.5.2.9.6 1.1 1.1l.3.7c.1.2.2.4.3.5.5.6.2 1.5-.5 1.6z"
                fill="#fff" />
            <path
                d="M6.784 55.96h-.4l-4.38-.707a2.473 2.473 0 0 1-1.65-1.136c-.588-.94-.425-2.311.375-3.111l.9-.899c.302-.301.728-.646 1.354-.646l3.036-.396c.377 0 .646-.003 1.023.123l3.599 1.198a2.505 2.505 0 0 1 1.406 1.39l.295.688c.047.093.147.293.196.346.391.465.492 1.055.292 1.572a1.352 1.352 0 0 1-1.077.874l-4.899.7a.821.821 0 0 1-.07.004zm-.701-5.9-3.036.396c-.239.004-.417.064-.711.357l-.899.899c-.416.416-.622 1.254-.23 1.882.21.35.564.593.974.675l4.283.697.278-.006 4.871-.696c.176-.025.254-.163.285-.243a.544.544 0 0 0-.098-.541c-.128-.126-.248-.365-.364-.597l-.312-.727a1.49 1.49 0 0 0-.827-.834l-3.572-1.188c-.223-.074-.363-.074-.642-.074z"
                fill="#1d2445" />
            <path
                d="m185.783 93.16-1.6 1.4c-.3.3-.7.4-1.1.5l-2.4.3h-.5l-3.9-.4-4.9-.3c-.6 0-1.2-.4-1.5-.9l-1.2-1.8c-.5-.8-.4-1.8.2-2.5l3.6-3.6c.4-.4.9-.6 1.4-.6h3.2c.2 0 .4 0 .6.1l5.9 1.9c.5.1.8.5 1.1.9l1.4 2.4c.6 1 .4 2-.3 2.6z"
                fill="#fff" />
            <path
                d="M180.684 95.859h-.5l-3.951-.402-4.88-.298h-.002c-.712 0-1.486-.459-1.896-1.142l-1.187-1.78a2.613 2.613 0 0 1 .236-3.103l3.626-3.629a2.476 2.476 0 0 1 1.753-.746h3.2c.23 0 .518 0 .823.152l5.831 1.872c.631.122 1.027.65 1.346 1.074l1.433 2.449c.693 1.154.535 2.425-.406 3.232l-1.597 1.396c-.375.377-.871.5-1.309.609l-2.458.311a.33.33 0 0 1-.062.005zm-6.801-10.099c-.382 0-.754.161-1.046.453l-3.6 3.601a1.604 1.604 0 0 0-.129 1.882l1.192 1.787c.242.401.692.678 1.084.678l4.931.301 3.92.401.417-.003 2.371-.296c.297-.078.605-.154.809-.357l1.624-1.422c.563-.484.639-1.236.2-1.968l-1.403-2.404c-.229-.3-.454-.6-.766-.662l-5.956-1.915c-.16-.073-.267-.075-.447-.075h-3.201z"
                fill="#1d2445" />
            <path
                d="m519.083 52.96 1.6 1.6c.3.3.7.5 1.1.5l2.4.4h.5l3.9-.4 4.9-.3c.6 0 1.2-.4 1.5-.9l1.2-2c.5-.9.4-2-.2-2.7l-3.6-4c-.4-.4-.9-.6-1.4-.6h-3.2c-.2 0-.4 0-.6.1l-5.9 2.1c-.5.2-.8.5-1.1 1l-1.4 2.6c-.5.8-.4 1.9.3 2.6z"
                fill="#fff" />
            <path
                d="M524.683 55.96h-.5l-2.481-.407c-.446.011-.96-.229-1.371-.639l-1.601-1.601a2.623 2.623 0 0 1-.37-3.219l1.383-2.572c.389-.646.777-.995 1.355-1.227l5.917-2.106c.25-.13.537-.13.769-.13h3.2c.649 0 1.272.266 1.753.747l3.619 4.019c.748.873.854 2.217.265 3.277l-1.208 2.014c-.411.685-1.187 1.144-1.929 1.144l-4.87.299-3.88.398a.436.436 0 0 1-.051.003zm3.101-10.9c-.18 0-.286.002-.376.047l-5.956 2.124c-.353.142-.577.35-.84.787l-1.388 2.579a1.626 1.626 0 0 0 .213 2.01l1.6 1.6c.222.221.501.354.747.354l2.481.407.388-.006 3.88-.398 4.921-.302c.422-.001.872-.277 1.102-.659l1.199-1.999c.382-.688.323-1.564-.15-2.117l-3.593-3.99a1.465 1.465 0 0 0-1.027-.436h-3.201z"
                fill="#1d2445" />
        </svg></g>
    <g transform="translate(1224.0 338.0) rotate(0.0 67.0 162.5) scale(1.8868721573707705 1.8884369552585707)"><svg
            width="71.017" height="172.1" viewBox="0 0 71.017 172.1">
            <path
                d="M23.503 127.5v44.1c4.5-.4 9.2-.9 14-1.2v-31c28.5-3.2 32.8-51.4 33-53.5.2-2.8-1.8-5.2-4.6-5.4-2.7-.2-5.2 1.8-5.4 4.6 0 .4-3.8 39.5-23 43.3v-46c14.1-1.7 18.6-18 19-26.7.1-2.8-2-5.1-4.8-5.2-2.7-.1-5.1 2-5.2 4.8 0 .2-.8 13.7-9 16.2v-64c0-3.9-3.1-7-7-7s-7 3.1-7 7v109.4c-1.5-.6-2.9-1.5-4.2-2.8-7.7-7.9-9-26.8-8.8-33.4.1-2.8-2.1-5.1-4.9-5.1h-.1c-2.7 0-4.9 2.2-5 4.9 0 1.1-.5 28.2 11.7 40.7 3.2 3.1 7 5.5 11.3 6.3z"
                fill="#fff" />
            <path
                d="M23.503 172.1a.499.499 0 0 1-.5-.5v-43.688c-3.891-.818-7.639-2.953-11.147-6.352C.381 109.804-.031 85.397.002 80.624l.001-.124c.109-2.986 2.577-5.4 5.5-5.4 1.584 0 2.965.583 3.987 1.643a5.405 5.405 0 0 1 1.513 3.976c-.185 6.074 1.011 25.188 8.658 33.033a11.925 11.925 0 0 0 3.342 2.386V7.5c0-4.206 3.294-7.5 7.5-7.5s7.5 3.294 7.5 7.5v63.295c7.289-2.907 7.996-15.375 8-15.504.104-2.924 2.578-5.294 5.516-5.294l.203.003a5.432 5.432 0 0 1 3.837 1.749c.984 1.07 1.497 2.479 1.444 3.969-.394 8.554-4.879 25.093-19 27.121v44.94c18.28-4.413 21.981-42.312 22-42.695.214-3.003 2.91-5.305 5.938-5.083 3.06.219 5.283 2.826 5.062 5.936-.494 5.233-5.534 50.35-32.999 53.907V170.4a.5.5 0 0 1-.469.499c-3.444.215-6.853.535-10.149.845-1.293.121-2.573.241-3.838.354l-.045.002zm-17.901-96a4.606 4.606 0 0 0-4.6 4.419l-.001.112c-.033 4.704.368 28.755 11.559 40.22 3.479 3.368 7.193 5.443 11.034 6.158a.5.5 0 0 1 .408.491v43.553c1.085-.098 2.182-.2 3.289-.305 3.154-.296 6.411-.602 9.711-.816V139.4a.5.5 0 0 1 .444-.497c27.067-3.039 32.07-47.882 32.552-52.985.188-2.603-1.63-4.74-4.132-4.919-2.524-.201-4.692 1.7-4.865 4.137.001.355-3.589 39.833-23.402 43.755a.494.494 0 0 1-.414-.104.505.505 0 0 1-.183-.387v-46a.5.5 0 0 1 .44-.496c13.803-1.665 18.176-17.884 18.561-26.228a4.534 4.534 0 0 0-1.182-3.251 4.439 4.439 0 0 0-3.137-1.426l-.167-.003c-2.405 0-4.432 1.938-4.516 4.32 0 .121-.697 14.021-9.354 16.661a.5.5 0 0 1-.645-.478v-64c0-3.645-2.855-6.5-6.5-6.5s-6.5 2.855-6.5 6.5v109.4a.499.499 0 0 1-.686.464c-1.637-.655-3.065-1.607-4.368-2.911-7.934-8.139-9.147-27.135-8.946-33.769a4.405 4.405 0 0 0-1.232-3.248A4.365 4.365 0 0 0 5.602 76.1z"
                fill="#1d2445" />
        </svg></g>
    <g transform="translate(1083.0 452.0) rotate(0.0 54.0 104.0) scale(1.8638363965829665 1.8571428571428572)"><svg
            width="57.945" height="112" viewBox="0 0 57.945 112">
            <path
                d="M22.374 78.4v29.2c4.9 1.3 9.6 2.6 14 3.9v-17c5.2-.4 9.6-2.6 13.1-6.3 8.9-9.5 8-26.2 7.9-28-.2-2.8-2.6-4.8-5.3-4.6s-4.8 2.6-4.6 5.3c.3 3.9-.2 15.1-5.2 20.5-1.5 1.6-3.8 2.1-5.8 2.1v-76c0-3.9-3.1-7-7-7s-7 3.1-7 7v60c-1.7-.5-3.3-1.2-4.7-2.6-6.8-7.2-7.6-23.5-7.3-29.1.1-2.8-2-5.1-4.7-5.3-2.8-.1-5.1 2-5.2 4.7-.1 1-1.2 24.7 10 36.5 3.2 3.5 7.2 6 11.8 6.7z"
                fill="#fff" />
            <path
                d="M36.374 112a.493.493 0 0 1-.142-.021 519.766 519.766 0 0 0-13.986-3.896.5.5 0 0 1-.372-.483V78.824c-4.269-.757-8.295-3.097-11.669-6.786C-1.375 59.838.053 35.388.077 35.15c.104-2.876 2.524-5.153 5.506-5.153l.209.003c3.023.225 5.29 2.779 5.182 5.817-.278 5.2.441 21.622 7.164 28.739 1.218 1.218 2.586 1.848 3.836 2.264V7.5c0-4.206 3.294-7.5 7.5-7.5s7.5 3.294 7.5 7.5v75.488c1.405-.063 3.531-.432 4.937-1.93 4.985-5.386 5.336-16.611 5.065-20.12-.218-2.945 2.101-5.618 5.062-5.838 3.065-.229 5.619 2.033 5.836 5.063.243 4.393.381 19.396-8.034 28.378-3.563 3.768-7.923 5.924-12.965 6.416V111.5a.498.498 0 0 1-.501.5zm-13.5-4.785a530.056 530.056 0 0 1 13 3.617V94.5c0-.262.201-.479.462-.498 4.982-.384 9.28-2.451 12.774-6.146 8.353-8.915 7.934-24.579 7.765-27.629-.178-2.469-2.282-4.339-4.764-4.129-2.421.179-4.316 2.361-4.139 4.765.278 3.62-.101 15.228-5.331 20.877-1.844 1.967-4.656 2.26-6.167 2.26a.5.5 0 0 1-.5-.5v-76c0-3.645-2.855-6.5-6.5-6.5s-6.5 2.855-6.5 6.5v60a.5.5 0 0 1-.641.479c-1.441-.424-3.303-1.117-4.911-2.726-7.008-7.419-7.751-23.796-7.446-29.48.089-2.491-1.771-4.592-4.237-4.774l-.154-.002c-2.441 0-4.422 1.854-4.509 4.222-.026.264-1.432 24.238 9.862 36.138 3.336 3.648 7.315 5.911 11.513 6.55a.5.5 0 0 1 .425.494v28.814z"
                fill="#1d2445" />
        </svg></g>
    <g
        transform="translate(984.0 763.0) rotate(-39.57565346797372 50.5 45.0) scale(1.0003565627352324 0.9995446518808099)">
        <svg width="100.964" height="90.041" viewBox="0 0 100.964 90.041">
            <g fill="#1d2445">
                <path
                    d="M76.899 47.981a1 1 0 0 1-.934-1.355l2.06-5.418a1 1 0 1 1 1.869.711l-2.06 5.418a.998.998 0 0 1-.935.644zM63.402 86.28a1 1 0 0 1-.805-.405l-2.634-3.559a.999.999 0 1 1 1.607-1.189l2.634 3.559a.999.999 0 0 1-.802 1.594zM41.53 64.708a1 1 0 0 1-.993-.891l-.626-5.69a1 1 0 0 1 1.989-.219l.626 5.69a1 1 0 0 1-.996 1.11zm40.751-5.775a1.001 1.001 0 0 1-.729-1.685l4.896-5.199a1.001 1.001 0 0 1 1.457 1.371l-4.896 5.199a.999.999 0 0 1-.728.314zM28.651 73.18a.999.999 0 0 1-.896-.555l-2.205-4.43a1 1 0 1 1 1.791-.891l2.205 4.43a1 1 0 0 1-.895 1.446zm26.324-43.586a1.002 1.002 0 0 1-.977-1.221l1.249-5.494a1.001 1.001 0 0 1 1.951.443l-1.249 5.494a1 1 0 0 1-.974.778zm.963 60.447a.997.997 0 0 1-.816-.421L50.9 83.685a1.002 1.002 0 0 1 .236-1.395 1.003 1.003 0 0 1 1.395.236l4.221 5.936a1.002 1.002 0 0 1-.814 1.579z" />
                <path
                    d="M67.961 74.301c-4.556 0-13.311-1.771-24.667-12.464-18.188-17.125-6.047-56.304-5.521-57.964a1 1 0 1 1 1.906.604c-.125.395-12.287 39.641 4.985 55.903 15.76 14.838 26.029 11.629 26.129 11.594a1.002 1.002 0 0 1 .637 1.897c-.146.048-1.356.429-3.469.43z" />
                <path
                    d="M41.828 74.86c-6.945 0-14.815-4.81-19.748-9.453C12.326 56.222 8.5 39.06 13.552 27.15c5.783-13.526 23.931-23.439 24.7-23.854a.998.998 0 0 1 1.354.405.998.998 0 0 1-.405 1.354c-.181.099-18.304 10.001-23.808 22.879-4.751 11.2-1.137 27.358 8.059 36.016 6.647 6.258 18.961 12.994 25.642 5.896a1.001 1.001 0 0 1 1.457 1.371c-2.446 2.596-5.485 3.643-8.723 3.643z" />
                <path
                    d="M62.578 75.695a.998.998 0 0 1-.964-1.268c10.366-37.194-12.627-60.2-15.283-62.7-4.507-4.242-8.127-6.698-8.163-6.723a1 1 0 0 1 1.117-1.659c.152.103 3.783 2.562 8.417 6.924 12.376 11.653 23.95 35.589 15.838 64.693a.998.998 0 0 1-.962.733z" />
                <path
                    d="M54.751 50.668c-.338 0-.668-.172-.856-.481C43.555 33.116 37.803 4.656 37.746 4.37a1 1 0 1 1 1.961-.391c.057.282 5.742 28.402 15.898 45.171a1 1 0 0 1-.854 1.518z" />
                <path
                    d="M43.094 51.053c-.168 0-.334-.002-.496-.007-4.987-.125-9.885-2.113-13.435-5.456a1.001 1.001 0 0 1 1.371-1.457c3.149 2.966 7.678 4.803 12.113 4.914 3.741.1 9.269-.953 14.465-6.473 4.041-4.292 6.402-8.33 7.219-12.345 1.176-5.784-1.054-11.377-6.626-16.622-7.472-7.035-18.978-8.426-19.093-8.439a1 1 0 0 1-.879-1.107.988.988 0 0 1 1.107-.879c.498.057 12.285 1.484 20.235 8.969 6.11 5.753 8.537 11.97 7.215 18.478-.893 4.391-3.419 8.746-7.722 13.317-5.478 5.819-11.352 7.107-15.474 7.107z" />
                <path
                    d="M67.722 45.226a1 1 0 0 1-.293-1.956c.053-.017 5.319-1.674 9.478-6.092 2.438-2.589 3.851-6.992 3.688-11.491-.141-3.867-1.47-9.57-7.005-14.781C59.841-2.039 39.268 5.044 39.061 5.117a1 1 0 0 1-.668-1.884c.217-.076 21.94-7.556 36.567 6.216 6.028 5.677 7.478 11.925 7.632 16.166.183 5.014-1.438 9.971-4.229 12.935-4.536 4.818-10.114 6.562-10.35 6.633a1.016 1.016 0 0 1-.291.043z" />
                <path
                    d="M54.644 63.918c-3.246.001-7.25-2.146-11.731-6.364-6.831-6.431-12.133-15.494-13.508-23.091-2.889-15.778 8.062-30.286 8.528-30.896a1 1 0 0 1 1.588 1.216c-.109.143-10.875 14.427-8.148 29.322 1.304 7.204 6.372 15.835 12.911 21.991 3.515 3.311 9.961 8.281 13.621 4.39.716-.76 1.026-1.612.923-2.536a3.513 3.513 0 0 0-1.063-2.107c-.611-.576-1.442-.602-2.034-.523-.785.106-1.419.44-1.6.633a1.001 1.001 0 0 1-1.457-1.371c.568-.604 1.664-1.092 2.79-1.243 1.443-.199 2.748.179 3.672 1.049a5.502 5.502 0 0 1 1.679 3.342c.118 1.054-.038 2.626-1.454 4.129-1.298 1.377-2.887 2.059-4.717 2.059z" />
                <path
                    d="M80.569 52.417h-.022a1.003 1.003 0 0 1-.978-1.022c.126-5.561-3.944-25.063-17.52-35.373C48.509 5.739 38.65 5.334 38.553 5.331a.999.999 0 0 1 .027-2h.025c.424.011 10.546.384 24.653 11.099C77.62 25.337 81.706 45.374 81.569 51.44a1 1 0 0 1-1 .977z" />
                <path
                    d="M70.338 69.659c-2.302 0-3.74-.707-3.871-.773a1.002 1.002 0 0 1-.435-1.347.998.998 0 0 1 1.341-.437c.265.128 6.122 2.87 13.616-5.089 5.217-5.541 7.291-13.751 5.839-23.116-1.318-8.508-5.367-16.657-10.83-21.8C60.358 2.372 39.076 5.137 38.864 5.165a1 1 0 0 1-.275-1.981c.223-.032 22.449-2.92 38.78 12.456 5.776 5.438 10.051 14.018 11.436 22.95 1.548 9.988-.71 18.794-6.358 24.794-4.821 5.12-9.169 6.275-12.109 6.275z" />
                <path
                    d="M48.58 84.235c-5.605 0-11.254-1.117-16.475-3.396-10.368-4.524-17.103-12.946-18.477-23.107C10.303 33.541 36.862 4.709 37.995 3.493a1 1 0 1 1 1.463 1.363c-.27.292-27.044 29.355-23.848 52.606 1.278 9.453 7.582 17.306 17.295 21.544 12.179 5.313 26.794 3.998 37.233-3.354a1.001 1.001 0 0 1 1.153 1.635c-6.515 4.588-14.567 6.948-22.711 6.948zm43.693-62.502c-3.244 0-5.344-1.807-5.458-1.907a1 1 0 0 1 1.322-1.5c.11.095 2.85 2.405 6.796.894a1 1 0 1 1 .713 1.869 9.415 9.415 0 0 1-3.373.644zM.999 44.204a1 1 0 0 1-.029-2c.663-.02 2.471-.968 3.28-1.826 1.389-1.568 1.963-3.012 1.968-3.025a.997.997 0 0 1 1.294-.569c.514.199.77.775.572 1.289-.027.072-.693 1.776-2.358 3.654-1.058 1.124-3.326 2.435-4.696 2.477H.999zm8.869 26.005-.081-.003a1 1 0 0 1-.917-1.077l.552-6.837a1 1 0 0 1 1.994.16l-.552 6.837a1 1 0 0 1-.996.92zm70.115 13.045a1.001 1.001 0 0 1-.995-1.111l.797-7.098a1.005 1.005 0 0 1 1.105-.883c.549.062.944.557.883 1.105l-.797 7.098a1 1 0 0 1-.993.889zm19.98-24.348a.999.999 0 0 1-.513-.142l-5.711-3.415a1 1 0 0 1 1.027-1.717l5.711 3.415a1 1 0 0 1-.514 1.859zM71.389 5.908a1.001 1.001 0 0 1-.57-1.823L76.461.177A1 1 0 0 1 77.6 1.822L71.958 5.73a.996.996 0 0 1-.569.178zM32.687 89.732a1 1 0 0 1-.914-.592l-1.896-4.237a1 1 0 1 1 1.826-.816l1.896 4.237a1 1 0 0 1-.912 1.408z" />
                <path
                    d="M38.323 42.07a1 1 0 0 1-.934-1.355l2.528-6.645a1 1 0 1 1 1.869.711l-2.528 6.645a1 1 0 0 1-.935.644zm24.383-12.356a1 1 0 0 1-.998-.956l-.323-7.366a1 1 0 1 1 1.998-.088l.323 7.366a1 1 0 0 1-.955 1.043l-.045.001zm14.498 28.361a.997.997 0 0 1-.816-.421l-4.221-5.936a1.002 1.002 0 0 1 .236-1.395 1.003 1.003 0 0 1 1.395.236l4.221 5.936a1.002 1.002 0 0 1-.815 1.58zm-56.076.175a.999.999 0 0 1-.993-1.123l.895-7.202a.992.992 0 0 1 1.115-.869.999.999 0 0 1 .869 1.115l-.895 7.202a.998.998 0 0 1-.991.877z" />
                <path
                    d="M68.939 85.608a1 1 0 0 1-.512-1.859c.1-.06 10.121-6.103 17.731-16.336C96.26 53.828 97.552 39.66 89.999 25.3 72.458-7.98 39.434 4.967 39.103 5.102a1 1 0 1 1-.752-1.854c.348-.14 35.041-13.745 53.418 21.12C110.695 60.353 69.865 85.22 69.45 85.467a.99.99 0 0 1-.511.141z" />
                <path
                    d="M60.1 77.285a1 1 0 0 1-.845-.463C58.089 74.99 30.783 31.623 37.757 3.931a1 1 0 1 1 1.94.488c-6.763 26.856 20.965 70.888 21.246 71.329a1 1 0 0 1-.843 1.537z" />
                <path
                    d="M39.939 78.903a.997.997 0 0 1-.794-.391c-.322-.419-31.923-42.333-1.147-75.022a1.001 1.001 0 0 1 1.457 1.371c-29.603 31.441.964 72.026 1.276 72.433a1 1 0 0 1-.792 1.609z" />
                <path
                    d="M53.122 80.527a.995.995 0 0 1-.44-.103c-.361-.178-8.972-4.463-19.361-14.245-4.425-4.166-12.294-12.795-15.281-23.785-3.206-11.799-.001-22.912 9.526-33.032 5.859-6.223 10.954-6.18 11.184-6.187.552.013.989.47.978 1.022a1.002 1.002 0 0 1-1 .978h-.022c-.063 0-4.492.046-9.682 5.558-9.02 9.579-12.065 20.055-9.053 31.137 2.858 10.516 10.45 18.832 14.722 22.853C44.846 74.284 53.48 78.588 53.566 78.63c.495.244.699.844.456 1.339a1.005 1.005 0 0 1-.9.558z" />
                <path
                    d="M59.919 54.555a1 1 0 0 1-1-.999C58.892 24.866 38.25 5.1 38.041 4.904a1.001 1.001 0 0 1 1.371-1.457c.215.203 21.479 20.563 21.507 50.107a1 1 0 0 1-1 1.001z" />
                <path
                    d="M38.743 89.549c-.117 0-.236-.021-.353-.064-.362-.137-8.971-3.437-17.341-11.315-6.49-6.113-20.822-22.742-13.72-45.087 2.078-6.465 7.707-14.581 10.274-17.309C29.576 3.06 38.385 3.186 38.755 3.175c.553.017.987.477.972 1.028-.016.553-.48.948-1.028.972-.08.027-8.35-.018-19.638 11.971-2.39 2.537-7.869 10.457-9.826 16.546-6.758 21.26 6.971 37.168 13.187 43.021 8.063 7.592 16.591 10.869 16.676 10.901a1 1 0 0 1-.355 1.935z" />
                <path
                    d="M84.039 43.521a1 1 0 0 1-.988-.853c-.015-.101-1.563-10.102-7.809-19.674C66.936 10.262 54.681 4.272 38.783 5.173c-.518.035-1.023-.39-1.055-.941s.39-1.023.941-1.055C78.398.888 84.967 41.959 85.028 42.374a1 1 0 0 1-.989 1.147z" />
                <path
                    d="M66.434 69.516a1.002 1.002 0 0 1-.731-1.684c.085-.09 8.424-9.228 5.539-24.874-1.913-10.456-6.708-19.118-14.658-26.481C47.868 8.364 38.502 5.155 38.408 5.123a1.002 1.002 0 0 1-.63-1.267 1.006 1.006 0 0 1 1.266-.63c.398.134 9.854 3.364 18.901 11.783 8.276 7.666 13.27 16.69 15.264 27.586 3.076 16.685-5.674 26.208-6.048 26.605a.994.994 0 0 1-.727.316z" />
            </g>
        </svg></g>
    <g transform="translate(299.0 771.0) rotate(0.0 100.5 95.0) scale(1.2065839866495383 1.211587881570473)"><svg
            width="166.586" height="156.819" viewBox="0 0 166.586 156.819">
            <g fill="#1d2445">
                <path
                    d="M49.722 51.954a1.5 1.5 0 0 1-.574-2.886l9.156-3.785a1.5 1.5 0 1 1 1.146 2.772l-9.156 3.785a1.485 1.485 0 0 1-.572.114zm71.295-24.416a1.501 1.501 0 0 1-1.478-1.766l1.343-7.447a1.51 1.51 0 0 1 1.742-1.21 1.501 1.501 0 0 1 1.21 1.743l-1.343 7.447a1.5 1.5 0 0 1-1.474 1.233zm-6.228 52.494a1.5 1.5 0 0 1-1.141-2.472l6.348-7.447a1.5 1.5 0 0 1 2.283 1.945l-6.348 7.447a1.497 1.497 0 0 1-1.142.527zM66.202 28.637H53.994a1.5 1.5 0 1 1 0-3h12.208a1.5 1.5 0 1 1 0 3zm77.642 57.987a1.501 1.501 0 0 1-1.408-2.02l2.93-7.935a1.5 1.5 0 0 1 2.815 1.039l-2.93 7.935a1.5 1.5 0 0 1-1.407.981zm-90.459 15.26a1.5 1.5 0 0 1-.762-2.793l8.301-4.883a1.5 1.5 0 1 1 1.522 2.586l-8.301 4.883c-.24.14-.502.207-.76.207zm79.962-64.701a1.5 1.5 0 0 1-1.472-1.794l2.442-12.208a1.491 1.491 0 0 1 1.765-1.177 1.499 1.499 0 0 1 1.176 1.765l-2.442 12.208a1.502 1.502 0 0 1-1.469 1.206z" />
                <path
                    d="M50.332 145.832a1.501 1.501 0 0 1-.652-2.852c.638-.308 63.853-31.211 63.853-71.896 0-37.128-16.137-46.201-16.3-46.288a1.5 1.5 0 0 1 1.417-2.644c.73.392 17.883 10.026 17.883 48.933 0 42.57-62.875 73.311-65.552 74.599a1.5 1.5 0 0 1-.649.148z" />
                <path
                    d="M87.077 151.85c-18.577 0-36.2-5.756-37.218-6.094a1.5 1.5 0 0 1-.951-1.896 1.506 1.506 0 0 1 1.896-.951c.337.111 33.964 11.087 56.511 2.824 19.583-7.24 35.518-30.761 35.518-52.429 0-15.689-6.103-39.03-22.916-39.03a1.5 1.5 0 1 1 0-3c19.014 0 25.916 25.136 25.916 42.03 0 22.82-16.814 47.603-37.481 55.244-6.614 2.423-14.019 3.302-21.275 3.302z" />
                <path
                    d="M50.329 145.832a1.5 1.5 0 0 1-1.479-1.258c-.05-.309-1.24-7.691-1.24-18.554 0-6.974 1.207-25.488 12.38-46.737 10.905-20.737 27.546-37.086 49.462-48.592a1.5 1.5 0 1 1 1.394 2.656C52.3 64.084 50.609 119.771 50.609 126.02c0 10.6 1.189 17.996 1.201 18.069a1.502 1.502 0 0 1-1.481 1.743z" />
                <path
                    d="M50.33 145.832a1.5 1.5 0 0 1-1.221-2.37c.285-.4 28.643-40.455 37.621-72.778a1.5 1.5 0 0 1 2.891.803c-9.121 32.835-37.78 73.311-38.068 73.716-.292.41-.754.629-1.223.629z" />
                <path
                    d="M50.332 145.832c-.457 0-.909-.208-1.203-.603-.511-.685-12.505-16.972-12.505-35.567 0-16.612 6.932-36.415 39.955-36.415 23.573 0 36.292 17.756 36.292 34.462a1.5 1.5 0 1 1-3 0c0-12.164-9.039-31.462-33.292-31.462-24.521 0-36.955 11.242-36.955 33.415 0 17.609 11.791 33.613 11.91 33.772a1.5 1.5 0 0 1-1.202 2.398z" />
                <path
                    d="M50.33 145.832c-.231 0-.465-.053-.685-.166-.35-.18-34.996-18.394-34.996-52.606 0-24.548 18.933-38.124 32.02-38.124 11.256 0 19.914 4.873 20.277 5.08a1.5 1.5 0 0 1-1.487 2.606c-.083-.047-8.36-4.686-18.79-4.686-11.861 0-29.02 12.508-29.02 35.124 0 32.361 33.035 49.767 33.369 49.938a1.502 1.502 0 0 1-.688 2.834z" />
                <path
                    d="M50.329 145.832a1.5 1.5 0 0 1-.15-2.993c.306-.031 30.789-3.376 46.189-24.3 7.462-10.097 12.282-26.566 12.282-41.962 0-8.33-1.391-22.305-10.708-22.305-4.273 0-5.825 3.483-5.825 5.824 0 2.796 3.42 4.604 4.604 4.604a1.5 1.5 0 1 1 0 3c-2.611 0-7.604-2.962-7.604-7.604 0-4.277 3.093-8.824 8.825-8.824 8.84 0 13.708 8.986 13.708 25.305 0 15.996-5.051 33.166-12.868 43.742-16.198 22.01-46.996 25.372-48.299 25.504a1.325 1.325 0 0 1-.154.009z" />
                <path
                    d="M50.697 145.831c-.411 0-.821-.168-1.117-.498-.481-.539-11.834-13.525-15.023-43.57-3.244-30.57 16.851-59.057 24.538-65.975a1.5 1.5 0 0 1 2.007 2.23c-7.087 6.378-26.645 34.373-23.562 63.428 3.076 28.982 14.166 41.762 14.277 41.888a1.501 1.501 0 0 1-1.12 2.497z" />
                <path
                    d="M50.33 145.832c-.33 0-.662-.108-.939-.331-.299-.24-29.859-24.453-29.859-62.696 0-28.105 23.758-62.051 53.262-62.051 21.27 0 25.21 12.747 25.368 13.289a1.499 1.499 0 0 1-2.879.841c-.148-.486-3.624-11.131-22.488-11.131-27.842 0-50.262 32.305-50.262 59.051 0 36.822 28.452 60.127 28.739 60.358a1.5 1.5 0 0 1-.942 2.67z" />
                <path
                    d="M50.331 145.832a1.5 1.5 0 0 1-.008-3c.681-.004 68.322-.738 93.574-32.037 10.316-12.726 12.715-29.845 6.583-46.971-7.681-21.451-26.504-38.151-47.956-42.543a1.5 1.5 0 1 1 .602-2.94c22.456 4.599 42.152 22.054 50.178 44.472 6.494 18.135 3.915 36.312-7.075 49.868-26.147 32.408-93.055 33.136-95.891 33.15l-.007.001zm-38.577-78.13a1.5 1.5 0 0 1-1.498-1.45c-.011-.257-.351-6.485-6.967-9.687a1.5 1.5 0 0 1 1.306-2.701c8.289 4.011 8.647 11.952 8.659 12.288a1.5 1.5 0 0 1-1.449 1.549l-.051.001zm131.358 79.351c-.384 0-.768-.146-1.061-.439-.837-.837-4.15-2.002-6.264-2.002-3.629.11-6.125 1.101-6.15 1.11a1.502 1.502 0 0 1-1.953-.826 1.499 1.499 0 0 1 .82-1.952c.12-.049 2.985-1.202 7.237-1.331h.002c2.591 0 6.807 1.258 8.429 2.88a1.5 1.5 0 0 1-1.06 2.56zm12.819-34.182a1.499 1.499 0 0 1-.938-2.671l9.156-7.325a1.5 1.5 0 1 1 1.874 2.341l-9.156 7.325c-.276.223-.607.33-.936.33zM89.398 10.325a1.501 1.501 0 0 1-.901-2.701L98.263.3a1.501 1.501 0 0 1 1.8 2.401l-9.766 7.325c-.27.201-.586.299-.899.299zm-41.509 7.446a1.5 1.5 0 0 1-1.463-1.178L43.984 5.484a1.5 1.5 0 0 1 1.143-1.787 1.492 1.492 0 0 1 1.787 1.143l2.441 11.109a1.5 1.5 0 0 1-1.466 1.822zm-34.912 86.554a1.52 1.52 0 0 1-.313-.033l-11.476-2.441a1.499 1.499 0 1 1 .624-2.933l11.476 2.441a1.499 1.499 0 0 1-.311 2.966zm146.615-42.727a1.501 1.501 0 0 1-1.385-2.077l3.052-7.324a1.501 1.501 0 0 1 2.77 1.154l-3.052 7.324a1.5 1.5 0 0 1-1.385.923z" />
                <path
                    d="M85.491 107.744a1.5 1.5 0 0 1-.574-2.887l11.231-4.64a1.5 1.5 0 0 1 1.146 2.773l-11.231 4.64a1.485 1.485 0 0 1-.572.114zM43.983 96.269a1.5 1.5 0 0 1-1.075-2.546l8.79-9.034a1.5 1.5 0 0 1 2.15 2.092l-8.79 9.034a1.494 1.494 0 0 1-1.075.454zm24.662-48.1a1.5 1.5 0 0 1-1.472-1.794l2.441-12.208a1.493 1.493 0 0 1 1.765-1.177 1.5 1.5 0 0 1 1.177 1.765l-2.441 12.208a1.501 1.501 0 0 1-1.47 1.206zm58.353 64.702a1.5 1.5 0 0 1-.886-2.711l10.011-7.325a1.5 1.5 0 0 1 1.771 2.422l-10.011 7.325a1.495 1.495 0 0 1-.885.289z" />
                <path
                    d="M50.33 145.832c-.209 0-.421-.044-.624-.137-.595-.272-14.709-6.846-26.35-21.361-10.775-13.437-21.23-36.42-9.847-69.605 11.795-34.29 38.963-44.334 59.677-46.723 22.274-2.571 41.453 2.809 42.259 3.039a1.5 1.5 0 0 1-.824 2.884c-.193-.056-19.485-5.451-41.178-2.934-28.834 3.353-48.045 18.395-57.096 44.708-8.768 25.562-5.646 47.991 9.278 66.664 11.188 13.999 25.191 20.537 25.332 20.602a1.5 1.5 0 0 1-.627 2.863z" />
                <path
                    d="M50.333 145.832a1.5 1.5 0 0 1-.732-2.811c41.44-23.101 63.758-109.283 63.979-110.15a1.5 1.5 0 1 1 2.907.738c-.914 3.595-22.867 88.309-65.425 112.033-.232.129-.482.19-.729.19z" />
                <path
                    d="M50.331 145.832a1.5 1.5 0 1 1 0-3c30.997 0 55.355-14.514 72.4-43.138 12.791-21.479 16.422-43.28 16.457-43.498a1.5 1.5 0 0 1 2.962.478c-.036.223-3.737 22.511-16.794 44.477-12.116 20.383-34.968 44.681-75.025 44.681z" />
                <path
                    d="M69.864 151.936c-14.54 0-20.405-6.332-20.647-6.602a1.5 1.5 0 0 1 2.229-2.006c.046.049 5.329 5.607 18.418 5.607 56.378 0 60.76-53.981 60.76-70.526 0-23.875-4.769-39.688-4.816-39.846a1.5 1.5 0 0 1 2.867-.882c.202.657 4.949 16.366 4.949 40.728 0 17.249-4.598 73.527-63.76 73.527z" />
                <path
                    d="M50.331 145.832a1.5 1.5 0 0 1-1.5-1.5c0-.503.424-50.732 37.095-85.325a1.5 1.5 0 1 1 2.059 2.182c-35.707 33.684-36.153 82.653-36.153 83.145a1.501 1.501 0 0 1-1.501 1.498z" />
                <path
                    d="M89.519 156.819c-29.752 0-39.892-11.021-40.309-11.491a1.499 1.499 0 1 1 2.243-1.992c.09.099 9.829 10.483 38.066 10.483 5.974 0 22.296-2.466 32.194-7.179 34.486-16.554 38.21-52.376 38.21-67.01 0-19.014-5.928-33.462-5.988-33.605a1.5 1.5 0 0 1 2.769-1.154c.254.609 6.219 15.152 6.219 34.76 0 15.201-3.89 52.424-39.916 69.717-10.45 4.975-27.101 7.471-33.488 7.471z" />
                <path
                    d="M50.331 145.832c-.37 0-.741-.137-1.031-.411-25.747-24.395-25.861-51.236-21.423-69.457 4.783-19.64 15.454-33.313 15.906-33.887a1.5 1.5 0 0 1 2.355 1.858c-.107.136-10.761 13.808-15.371 32.837-6.139 25.342.791 47.705 20.596 66.471a1.5 1.5 0 0 1-1.032 2.589z" />
                <path
                    d="M50.332 145.832a1.5 1.5 0 0 1-1.363-.872c-.3-.65-7.34-16.163-7.462-37.242-.156-19.238 5.21-35.985 16.407-51.195 17.099-23.294 39.101-23.562 40.029-23.562a1.5 1.5 0 1 1 0 3c-.21.001-21.451.321-37.612 22.339-10.799 14.67-15.975 30.828-15.824 49.397.119 20.401 7.117 35.854 7.187 36.008a1.5 1.5 0 0 1-1.362 2.127z" />
            </g>
        </svg></g>
</svg>